<svg width="112" height="40" viewBox="0 0 112 40" fill="none" xmlns="http://www.w3.org/2000/svg">
<circle cx="92" cy="20" r="20" fill="#FA7436"/>
<path d="M100.707 20.7071C101.098 20.3166 101.098 19.6834 100.707 19.2929L94.3431 12.9289C93.9526 12.5384 93.3195 12.5384 92.9289 12.9289C92.5384 13.3195 92.5384 13.9526 92.9289 14.3431L98.5858 20L92.9289 25.6569C92.5384 26.0474 92.5384 26.6805 92.9289 27.0711C93.3195 27.4616 93.9526 27.4616 94.3431 27.0711L100.707 20.7071ZM84 21H100V19H84V21Z" fill="white"/>
<circle cx="20" cy="20" r="20" transform="matrix(-1 0 0 1 40 0)" fill="#FEFCFB"/>
<circle cx="20" cy="20" r="19.5" transform="matrix(-1 0 0 1 40 0)" stroke="#999999" stroke-opacity="0.5"/>
<path d="M11.2929 20.7071C10.9024 20.3166 10.9024 19.6834 11.2929 19.2929L17.6569 12.9289C18.0474 12.5384 18.6805 12.5384 19.0711 12.9289C19.4616 13.3195 19.4616 13.9526 19.0711 14.3431L13.4142 20L19.0711 25.6569C19.4616 26.0474 19.4616 26.6805 19.0711 27.0711C18.6805 27.4616 18.0474 27.4616 17.6569 27.0711L11.2929 20.7071ZM28 21H12V19H28V21Z" fill="#999999" fill-opacity="0.5"/>
</svg>
